<svg id="Layer_5" enable-background="new 0 0 64 64" height="512" viewBox="0 0 64 64" width="512" xmlns="http://www.w3.org/2000/svg"><g><g><path d="m62 10v42c0 1.1-.9 2-2 2h-20v-9.13c0-1.18-.53-2.31-1.44-3.07l-4.56-3.8v-12c0-2.21-1.79-4-4-4h-22v-8-4z" fill="#e6e9ed"/><path d="m8 10v-6c0-1.1.9-2 2-2h50c1.1 0 2 .9 2 2v6z" fill="#5cd6b3"/><path d="m44 42h14v8h-14z" fill="#fcd770"/><path d="m58 36v2h-16v-2c0-4.42 3.58-8 8-8 2.21 0 4.21.9 5.66 2.34 1.44 1.45 2.34 3.45 2.34 5.66z" fill="#ff826e"/><circle cx="50" cy="24" fill="#f0d0b4" r="4"/><path d="m8 14v8h-2c-2.21 0-4-1.79-4-4 0-1.1.45-2.1 1.17-2.83.73-.72 1.73-1.17 2.83-1.17z" fill="#cf9e76"/><path d="m30 22c2.21 0 4 1.79 4 4v12l4.56 3.8c.91.76 1.44 1.89 1.44 3.07v9.13 4c0 2.21-1.79 4-4 4h-30c-2.21 0-4-1.79-4-4v-40c0 2.21 1.79 4 4 4h2z" fill="#d3a06c"/><g fill="#fcd770"><path d="m18 55v2c0 .55-.45 1-1 1h-2c-.55 0-1-.45-1-1v-2c0-.55.45-1 1-1h2c.55 0 1 .45 1 1z"/><path d="m10 55v2c0 .55-.45 1-1 1h-2c-.55 0-1-.45-1-1v-2c0-.55.45-1 1-1h2c.55 0 1 .45 1 1z"/></g></g><g><path d="m60 1h-50c-1.654 0-3 1.346-3 3v9h-1c-2.757 0-5 2.243-5 5v40c0 2.757 2.243 5 5 5h30c2.757 0 5-2.243 5-5v-3h19c1.654 0 3-1.346 3-3v-48c0-1.654-1.346-3-3-3zm-50 2h50c.551 0 1 .448 1 1v5h-52v-5c0-.552.449-1 1-1zm-4 12h1v6h-1c-1.654 0-3-1.346-3-3s1.346-3 3-3zm33 43c0 1.654-1.346 3-3 3h-30c-1.654 0-3-1.346-3-3v-36.002c.836.629 1.875 1.002 3 1.002h24c1.654 0 3 1.346 3 3v12.469l4.92 4.101c.686.571 1.08 1.41 1.08 2.303zm21-5h-19v-8.127c0-1.488-.656-2.888-1.799-3.841l-4.201-3.501v-11.531c0-2.757-2.243-5-5-5h-21v-10h52v41c0 .552-.449 1-1 1z"/><path d="m11 5h2v2h-2z"/><path d="m15 5h2v2h-2z"/><path d="m19 5h2v2h-2z"/><path d="m43 51h16v-10h-16zm2-8h12v6h-12z"/><path d="m53.377 27.663c.991-.914 1.623-2.212 1.623-3.663 0-2.757-2.243-5-5-5s-5 2.243-5 5c0 1.451.632 2.749 1.623 3.663-3.293 1.339-5.623 4.569-5.623 8.337v3h18v-3c0-3.768-2.33-6.998-5.623-8.337zm-6.377-3.663c0-1.654 1.346-3 3-3s3 1.346 3 3-1.346 3-3 3-3-1.346-3-3zm10 13h-14v-1c0-3.859 3.14-7 7-7s7 3.141 7 7z"/><path d="m11 13h22v2h-22z"/><path d="m11 17h2v2h-2z"/><path d="m15 17h18v2h-18z"/><path d="m57 13h2v2h-2z"/><path d="m53 13h2v2h-2z"/><path d="m49 13h2v2h-2z"/><path d="m9 53h-2c-1.103 0-2 .897-2 2v2c0 1.103.897 2 2 2h2c1.103 0 2-.897 2-2v-2c0-1.103-.897-2-2-2zm-2 4v-2h2l.001 2z"/><path d="m17 53h-2c-1.103 0-2 .897-2 2v2c0 1.103.897 2 2 2h2c1.103 0 2-.897 2-2v-2c0-1.103-.897-2-2-2zm-2 4v-2h2l.001 2z"/><path d="m5 49h14v2h-14z"/><path d="m17 45h2v2h-2z"/><path d="m5 45h10v2h-10z"/><path d="m29 29h2v2h-2z"/><path d="m29 25h2v2h-2z"/><path d="m29 33h2v2h-2z"/></g></g></svg>