<svg height="496pt" viewBox="0 0 496 496" width="496pt" xmlns="http://www.w3.org/2000/svg"><path d="M435.922 312c-8.723 0-17.203 2.16-24.64 6.16a52.284 52.284 0 00-18.723 17.047L392 336h-80l-.559-.8c-9.601-14.49-25.921-23.2-43.363-23.2-14.316 0-27.36 5.84-36.797 15.281C221.84 336.72 216 349.761 216 364.078v4.64c0 4.81.64 9.602 2 14.321l24.48 85.762C245.762 480.16 256.16 488 268 488c5.922 0 11.52-1.922 16-5.36 4.48-3.359 7.84-8.167 9.52-13.84l4.878-17.038L336 432h32l37.602 19.762 4.878 17.039C413.762 480.16 424.16 488 436 488c5.922 0 11.52-1.922 16-5.36 4.48-3.359 7.84-8.167 9.52-13.84L486 383.04c1.36-4.72 2-9.52 2-14.321v-4.64c0-28.72-23.36-52.079-52.078-52.079zm0 0" fill="#ccd1d9"/><path d="M296 368c0 13.254-10.746 24-24 24s-24-10.746-24-24 10.746-24 24-24 24 10.746 24 24zm0 0" fill="#969faa"/><g fill="#fcd770"><path d="M405.602 451.762A24.07 24.07 0 01392 456c-13.281 0-24-10.719-24-24s10.719-24 24-24 24 10.719 24 24c0 8.238-4.078 15.441-10.398 19.762zm0 0M298.398 451.762C292.078 447.442 288 440.238 288 432c0-13.281 10.719-24 24-24s24 10.719 24 24-10.719 24-24 24a24.07 24.07 0 01-13.602-4.238zm0 0M376 336v32h-48v-32zm0 0"/></g><path d="M288 296v16H96v-16c0-8.8 7.2-16 16-16h160c8.8 0 16 7.2 16 16zm0 0" fill="#e6e9ed"/><path d="M128 248h128v32H128zm0 0" fill="#969faa"/><path d="M376 200v16c0 17.68-14.32 32-32 32H40c-17.68 0-32-14.32-32-32v-16zm0 0" fill="#e6e9ed"/><path d="M376 120v80H8V40C8 22.32 22.32 8 40 8h304c17.68 0 32 14.32 32 32zm0 0" fill="#69d6f4"/><path d="M344 88v16h-96V88c0-26.48 21.52-48 48-48 13.281 0 25.281 5.36 33.922 14.078C338.64 62.718 344 74.718 344 88zm0 0" fill="#ff826e"/><path d="M327.602 141.922c.238 1.36.398 2.797.398 4.238 0 12.078-9.762 21.84-21.84 21.84h-20.32c-6 0-11.52-2.398-15.442-6.398-4-3.922-6.398-9.442-6.398-15.442 0-1.441.16-2.87.398-4.23L272 104h48zm0 0" fill="#f0d0b4"/><path d="M40 104c0-35.36 29.36-64 65.602-64 18.16 0 34.558 7.2 46.398 18.719L105.602 104 152 149.281C140.16 160.801 123.762 168 105.602 168 69.359 168 40 139.36 40 104zm0 0" fill="#b4dd7f"/><path d="M105.61 176c19.62 0 38.078-7.465 51.976-21.016l5.871-5.726L117.063 104l46.394-45.258-5.871-5.726C143.687 39.465 125.23 32 105.609 32 65.016 32 32 64.297 32 104s33.016 72 73.61 72zm0-128c12.613 0 24.605 3.91 34.511 11.152L94.152 104l45.977 44.848C130.215 156.09 118.223 160 105.609 160 73.84 160 48 134.871 48 104s25.84-56 57.61-56zm0 0"/><path d="M96 72a8 8 0 11-16 0 8 8 0 0116 0zm0 0M144 96h16v16h-16zm0 0M176 96h16v16h-16zm0 0M272 336c-17.648 0-32 14.352-32 32s14.352 32 32 32 32-14.352 32-32-14.352-32-32-32zm0 48c-8.824 0-16-7.176-16-16s7.176-16 16-16 16 7.176 16 16-7.176 16-16 16zm0 0M432 336h16v16h-16zm0 0M432 368h16v16h-16zm0 0M448 352h16v16h-16zm0 0M416 352h16v16h-16zm0 0"/><path d="M368 288h104c13.23 0 24-10.77 24-24s-10.77-24-24-24h-48c-4.406 0-8-3.586-8-8s3.594-8 8-8h32c13.23 0 24-10.77 24-24s-10.77-24-24-24h-16c-4.406 0-8-3.586-8-8s3.594-8 8-8h32c13.23 0 24-10.77 24-24s-10.77-24-24-24h-88V40c0-22.055-17.945-40-40-40H40C17.945 0 0 17.945 0 40v176c0 22.055 17.945 40 40 40h80v16h-8c-13.23 0-24 10.77-24 24v24h139.414C215.512 330.992 208 346.672 208 364.113v4.59c0 5.578.777 11.137 2.313 16.504l24.496 85.754C239.023 485.703 252.672 496 268 496s28.977-10.297 33.184-25.04l2.351-8.241c2.723.754 5.52 1.281 8.465 1.281 14.863 0 27.29-10.23 30.863-24h18.274c3.574 13.77 16 24 30.863 24 2.945 0 5.742-.527 8.457-1.281l2.352 8.242C407.023 485.703 420.672 496 436 496s28.977-10.297 33.184-25.04l24.496-85.753a59.787 59.787 0 002.32-16.504v-4.59C496 330.97 469.031 304 435.887 304a59.978 59.978 0 00-48.055 24H360v-32c0-4.414 3.594-8 8-8zM40 16h304c13.23 0 24 10.77 24 24v152H16V40c0-13.23 10.77-24 24-24zM16 216v-8h352v8c0 13.23-10.77 24-24 24H40c-13.23 0-24-10.77-24-24zm120 40h112v16H136zm-32 48v-8c0-4.414 3.594-8 8-8h160c4.406 0 8 3.586 8 8v8zm208 144c-8.824 0-16-7.176-16-16s7.176-16 16-16 16 7.176 16 16-7.176 16-16 16zm64-16c0-8.824 7.176-16 16-16s16 7.176 16 16-7.176 16-16 16-16-7.176-16-16zm20.281-88l2.903-4.36A44.04 44.04 0 01435.887 320c24.32 0 44.113 19.793 44.113 44.113v4.59c0 4.098-.566 8.168-1.695 12.121l-24.496 85.75C451.543 474.48 444.223 480 436 480s-15.543-5.52-17.809-13.434l-3.457-12.101C420.457 448.688 424 440.754 424 432c0-17.648-14.352-32-32-32-14.863 0-27.29 10.23-30.863 24h-18.274c-3.574-13.77-16-24-30.863-24-17.648 0-32 14.352-32 32 0 8.754 3.543 16.688 9.258 22.473l-3.457 12.101C283.543 474.48 276.223 480 268 480s-15.543-5.52-17.809-13.434l-24.496-85.75A43.992 43.992 0 01224 368.703v-4.59c0-24.32 19.793-44.113 44.113-44.113a44.029 44.029 0 0136.703 19.64l2.903 4.36H320v32h64v-32zM336 344h32v16h-32zm-19.832-16c-5.434-7.23-12.36-13-20.168-17.098V296c0-13.23-10.77-24-24-24h-8v-16h80c22.055 0 40-17.945 40-40v-88h88c4.406 0 8 3.586 8 8s-3.594 8-8 8h-32c-13.23 0-24 10.77-24 24s10.77 24 24 24h16c4.406 0 8 3.586 8 8s-3.594 8-8 8h-32c-13.23 0-24 10.77-24 24s10.77 24 24 24h48c4.406 0 8 3.586 8 8s-3.594 8-8 8H368c-13.23 0-24 10.77-24 24v32zm0 0"/><path d="M256.586 140.29a29.222 29.222 0 00-.586 5.878c0 16.45 13.383 29.832 29.832 29.832h20.328c16.457 0 29.84-13.383 29.84-29.832 0-1.977-.191-3.953-.586-5.848L329.762 112H352V88c0-30.871-25.121-56-56-56s-56 25.129-56 56v24h22.238zm63.148 3.183c.176.886.266 1.785.266 2.695 0 7.633-6.207 13.832-13.832 13.832H285.84c-7.633 0-13.84-6.2-13.84-13.832 0-.902.09-1.809.273-2.711L278.56 112h34.882zM256 88c0-22.055 17.945-40 40-40s40 17.945 40 40v8h-80zm0 0M208 96h16v16h-16zm0 0"/></svg>