<svg height="496pt" viewBox="0 0 496 496" width="496pt" xmlns="http://www.w3.org/2000/svg"><path d="m435.921875 312c-8.722656 0-17.203125 2.160156-24.640625 6.160156-7.441406 4-13.921875 9.839844-18.722656 17.046875l-.558594.792969h-80l-.558594-.800781c-9.601562-14.488281-25.921875-23.199219-43.363281-23.199219-14.316406 0-27.359375 5.839844-36.796875 15.28125-9.441406 9.4375-15.28125 22.480469-15.28125 36.796875v4.640625c0 4.808594.640625 9.601562 2 14.320312l24.480469 85.761719c3.28125 11.359375 13.679687 19.199219 25.519531 19.199219 5.921875 0 11.519531-1.921875 16-5.359375 4.480469-3.359375 7.839844-8.167969 9.519531-13.839844l4.878907-17.039062 37.601562-19.761719h32l37.601562 19.761719 4.878907 17.039062c3.28125 11.359375 13.679687 19.199219 25.519531 19.199219 5.921875 0 11.519531-1.921875 16-5.359375 4.480469-3.359375 7.839844-8.167969 9.519531-13.839844l24.480469-85.761719c1.359375-4.71875 2-9.519531 2-14.320312v-4.640625c0-28.71875-23.359375-52.078125-52.078125-52.078125zm0 0" fill="#ccd1d9"/><path d="m296 368c0 13.253906-10.746094 24-24 24s-24-10.746094-24-24 10.746094-24 24-24 24 10.746094 24 24zm0 0" fill="#969faa"/><g fill="#fcd770"><path d="m405.601562 451.761719c-3.839843 2.636719-8.5625 4.238281-13.601562 4.238281-13.28125 0-24-10.71875-24-24s10.71875-24 24-24 24 10.71875 24 24c0 8.238281-4.078125 15.441406-10.398438 19.761719zm0 0"/><path d="m298.398438 451.761719c-6.320313-4.320313-10.398438-11.523438-10.398438-19.761719 0-13.28125 10.71875-24 24-24s24 10.71875 24 24-10.71875 24-24 24c-5.039062 0-9.761719-1.601562-13.601562-4.238281zm0 0"/><path d="m376 336v32h-48v-32zm0 0"/></g><path d="m288 296v16h-192v-16c0-8.800781 7.199219-16 16-16h160c8.800781 0 16 7.199219 16 16zm0 0" fill="#e6e9ed"/><path d="m128 248h128v32h-128zm0 0" fill="#969faa"/><path d="m376 200v16c0 17.679688-14.320312 32-32 32h-304c-17.679688 0-32-14.320312-32-32v-16zm0 0" fill="#e6e9ed"/><path d="m376 120v80h-368v-160c0-17.679688 14.320312-32 32-32h304c17.679688 0 32 14.320312 32 32zm0 0" fill="#69d6f4"/><path d="m344 88v16h-96v-16c0-26.480469 21.519531-48 48-48 13.28125 0 25.28125 5.359375 33.921875 14.078125 8.71875 8.640625 14.078125 20.640625 14.078125 33.921875zm0 0" fill="#ff826e"/><path d="m327.601562 141.921875c.238282 1.359375.398438 2.796875.398438 4.238281 0 12.078125-9.761719 21.839844-21.839844 21.839844h-20.320312c-6 0-11.519532-2.398438-15.441406-6.398438-4-3.921874-6.398438-9.441406-6.398438-15.441406 0-1.441406.160156-2.871094.398438-4.230468l7.601562-37.929688h48zm0 0" fill="#f0d0b4"/><path d="m40 104c0-35.359375 29.359375-64 65.601562-64 18.160157 0 34.558594 7.199219 46.398438 18.71875l-46.398438 45.28125 46.398438 45.28125c-11.839844 11.519531-28.238281 18.71875-46.398438 18.71875-36.242187 0-65.601562-28.640625-65.601562-64zm0 0" fill="#b4dd7f"/><path d="m105.609375 176c19.621094 0 38.078125-7.464844 51.976563-21.015625l5.871093-5.726563-46.394531-45.257812 46.394531-45.257812-5.871093-5.726563c-13.898438-13.550781-32.355469-21.015625-51.976563-21.015625-40.59375 0-73.609375 32.296875-73.609375 72s33.015625 72 73.609375 72zm0-128c12.613281 0 24.605469 3.910156 34.511719 11.152344l-45.96875 44.847656 45.976562 44.847656c-9.914062 7.242188-21.90625 11.152344-34.519531 11.152344-31.769531 0-57.609375-25.128906-57.609375-56s25.839844-56 57.609375-56zm0 0"/><path d="m96 72c0 4.417969-3.582031 8-8 8s-8-3.582031-8-8 3.582031-8 8-8 8 3.582031 8 8zm0 0"/><path d="m144 96h16v16h-16zm0 0"/><path d="m176 96h16v16h-16zm0 0"/><path d="m272 336c-17.648438 0-32 14.351562-32 32s14.351562 32 32 32 32-14.351562 32-32-14.351562-32-32-32zm0 48c-8.824219 0-16-7.175781-16-16s7.175781-16 16-16 16 7.175781 16 16-7.175781 16-16 16zm0 0"/><path d="m432 336h16v16h-16zm0 0"/><path d="m432 368h16v16h-16zm0 0"/><path d="m448 352h16v16h-16zm0 0"/><path d="m416 352h16v16h-16zm0 0"/><path d="m368 288h104c13.230469 0 24-10.769531 24-24s-10.769531-24-24-24h-48c-4.40625 0-8-3.585938-8-8s3.59375-8 8-8h32c13.230469 0 24-10.769531 24-24s-10.769531-24-24-24h-16c-4.40625 0-8-3.585938-8-8s3.59375-8 8-8h32c13.230469 0 24-10.769531 24-24s-10.769531-24-24-24h-88v-72c0-22.054688-17.945312-40-40-40h-304c-22.054688 0-40 17.945312-40 40v176c0 22.054688 17.945312 40 40 40h80v16h-8c-13.230469 0-24 10.769531-24 24v24h139.414062c-11.902343 10.992188-19.414062 26.671875-19.414062 44.113281v4.589844c0 5.578125.777344 11.136719 2.3125 16.503906l24.496094 85.753907c4.214844 14.742187 17.863281 25.039062 33.191406 25.039062s28.976562-10.296875 33.183594-25.039062l2.351562-8.242188c2.722656.753906 5.519532 1.28125 8.464844 1.28125 14.863281 0 27.289062-10.230469 30.863281-24h18.273438c3.574219 13.769531 16 24 30.863281 24 2.945312 0 5.742188-.527344 8.457031-1.28125l2.351563 8.242188c4.214844 14.742187 17.863281 25.039062 33.191406 25.039062s28.976562-10.296875 33.183594-25.039062l24.496094-85.753907c1.542968-5.375 2.320312-10.925781 2.320312-16.503906v-4.589844c0-33.144531-26.96875-60.113281-60.113281-60.113281-19.007813 0-36.726563 8.910156-48.054688 24h-27.832031v-32c0-4.414062 3.59375-8 8-8zm-328-272h304c13.230469 0 24 10.769531 24 24v152h-352v-152c0-13.230469 10.769531-24 24-24zm-24 200v-8h352v8c0 13.230469-10.769531 24-24 24h-304c-13.230469 0-24-10.769531-24-24zm120 40h112v16h-112zm-32 48v-8c0-4.414062 3.59375-8 8-8h160c4.40625 0 8 3.585938 8 8v8zm208 144c-8.824219 0-16-7.175781-16-16s7.175781-16 16-16 16 7.175781 16 16-7.175781 16-16 16zm64-16c0-8.824219 7.175781-16 16-16s16 7.175781 16 16-7.175781 16-16 16-16-7.175781-16-16zm20.28125-88 2.902344-4.359375c8.199218-12.296875 21.929687-19.640625 36.703125-19.640625 24.320312 0 44.113281 19.792969 44.113281 44.113281v4.589844c0 4.097656-.566406 8.167969-1.695312 12.121094l-24.496094 85.75c-2.265625 7.90625-9.585938 13.425781-17.808594 13.425781s-15.542969-5.519531-17.808594-13.433594l-3.457031-12.101562c5.722656-5.777344 9.265625-13.710938 9.265625-22.464844 0-17.648438-14.351562-32-32-32-14.863281 0-27.289062 10.230469-30.863281 24h-18.273438c-3.574219-13.769531-16-24-30.863281-24-17.648438 0-32 14.351562-32 32 0 8.753906 3.542969 16.6875 9.257812 22.472656l-3.457031 12.101563c-2.257812 7.90625-9.578125 13.425781-17.800781 13.425781s-15.542969-5.519531-17.808594-13.433594l-24.496094-85.75c-1.128906-3.945312-1.695312-8.015625-1.695312-12.113281v-4.589844c0-24.320312 19.792969-44.113281 44.113281-44.113281 14.78125 0 28.503907 7.34375 36.703125 19.640625l2.902344 4.359375h12.28125v32h64v-32zm-60.28125 0h32v16h-32zm-19.832031-16c-5.433594-7.230469-12.359375-13-20.167969-17.097656v-14.902344c0-13.230469-10.769531-24-24-24h-8v-16h80c22.054688 0 40-17.945312 40-40v-88h88c4.40625 0 8 3.585938 8 8s-3.59375 8-8 8h-32c-13.230469 0-24 10.769531-24 24s10.769531 24 24 24h16c4.40625 0 8 3.585938 8 8s-3.59375 8-8 8h-32c-13.230469 0-24 10.769531-24 24s10.769531 24 24 24h48c4.40625 0 8 3.585938 8 8s-3.59375 8-8 8h-104c-13.230469 0-24 10.769531-24 24v32zm0 0"/><path d="m256.585938 140.289062c-.394532 1.917969-.585938 3.894532-.585938 5.878907 0 16.449219 13.382812 29.832031 29.832031 29.832031h20.328125c16.457032 0 29.839844-13.382812 29.839844-29.832031 0-1.976563-.191406-3.953125-.585938-5.847657l-5.652343-28.320312h22.238281v-24c0-30.871094-25.121094-56-56-56s-56 25.128906-56 56v24h22.238281zm63.148437 3.183594c.175781.886719.265625 1.785156.265625 2.695313 0 7.632812-6.207031 13.832031-13.832031 13.832031h-20.328125c-7.632813 0-13.839844-6.199219-13.839844-13.832031 0-.902344.089844-1.808594.273438-2.710938l6.285156-31.457031h34.882812zm-63.734375-55.472656c0-22.054688 17.945312-40 40-40s40 17.945312 40 40v8h-80zm0 0"/><path d="m208 96h16v16h-16zm0 0"/></svg>