<svg height="512" viewBox="0 0 64 64" width="512" xmlns="http://www.w3.org/2000/svg"><path d="M62 13v28c0 3.87-8.06 7-18 7-2.3 0-4.5-.17-6.53-.47L39 46l3-3-10-10 2-2-4-4-4 4V13c0 3.87 8.06 7 18 7 .68 0 1.34-.01 2-.04V36c0 1.1.9 2 2 2 .55 0 1.05-.22 1.41-.59.37-.36.59-.86.59-1.41V18c0-1.1.9-2 2-2 .55 0 1.05.22 1.41.59.37.36.59.86.59 1.41v12c0 1.1.9 2 2 2 .55 0 1.05-.22 1.41-.59.37-.36.59-.86.59-1.41V17.4c2.5-1.2 4-2.73 4-4.4z" fill="#d3a06c"/><path d="M46 15.96v4c-.66.03-1.32.04-2 .04-9.94 0-18-3.13-18-7V9c0 3.87 8.06 7 18 7 .68 0 1.34-.01 2-.04zM62 9v4c0 1.67-1.5 3.2-4 4.4v-4c2.5-1.2 4-2.73 4-4.4z" fill="#ccd1d9"/><path d="M62 9c0 1.67-1.5 3.2-4 4.4V9c0-1.66-6.27-3-14-3S30 7.34 30 9s6.27 3 14 3c.55 0 1.05.22 1.41.59.37.36.59.86.59 1.41v1.96c-.66.03-1.32.04-2 .04-9.94 0-18-3.13-18-7s8.06-7 18-7 18 3.13 18 7z" fill="#e6e9ed"/><path d="M60 58c1.1 0 2 .9 2 2 0 .55-.22 1.05-.59 1.41-.36.37-.86.59-1.41.59H10c-1.1 0-2-.9-2-2 0-.55.22-1.05.59-1.41.36-.37.86-.59 1.41-.59h17l4-4h14c1.1 0 2 .9 2 2 0 .55.22 1.05.59 1.41.36.37.86.59 1.41.59zM58 17.4V30c0 .55-.22 1.05-.59 1.41-.36.37-.86.59-1.41.59-1.1 0-2-.9-2-2V18c0-.55-.22-1.05-.59-1.41-.36-.37-.86-.59-1.41-.59-1.1 0-2 .9-2 2v18c0 .55-.22 1.05-.59 1.41-.36.37-.86.59-1.41.59-1.1 0-2-.9-2-2V14c0-.55-.22-1.05-.59-1.41-.36-.37-.86-.59-1.41-.59-7.73 0-14-1.34-14-3s6.27-3 14-3 14 1.34 14 3v4.4z" fill="#fcd770"/><path d="M26 39l6-6 10 10-3 3-1.53 1.53L33 52l-2 2-4 4-10-10 3-3z" fill="#ffeaa7"/><path d="M34 31l-2 2-6 6-6 6-3 3-2 2-4-4 7-7 5-5 3-3 4-4z" fill="#ccd1d9"/><path d="M23 34l-5 5L3 24c2.76 0 5-2.24 5-5z" fill="#aab2bd"/><path d="M7 18l1 1c0 2.76-2.24 5-5 5l-1-1c0-1.38.56-2.63 1.46-3.54C4.37 18.56 5.62 18 7 18z" fill="#b4dd7f"/><g><path d="M44 1C33.168 1 25 4.439 25 9v21.586l-2 2L7.414 17H7c-3.309 0-6 2.691-6 6v.414L16.586 39l-7 7L15 51.414l2-2L24.586 57H10c-1.654 0-3 1.346-3 3s1.346 3 3 3h50c1.654 0 3-1.346 3-3s-1.346-3-3-3H49a1 1 0 01-1-1c0-1.654-1.346-3-3-3H33.414l4.42-4.42A44.84 44.84 0 0044 49c10.832 0 19-3.439 19-8V9c0-4.561-8.168-8-19-8zm0 2c10.019 0 17 3.162 17 6 0 .887-.714 1.83-2 2.69V9c0-3.888-13.465-4-15-4s-15 .112-15 4 13.465 4 15 4c.552 0 1 .449 1 1v.979c-.333.007-.662.021-1 .021-10.019 0-17-3.162-17-6s6.981-6 17-6zm8 12c-1.654 0-3 1.346-3 3v18a1 1 0 01-2 0V14c0-1.654-1.346-3-3-3-7.398 0-12.047-1.222-12.916-2 .869-.778 5.518-2 12.916-2 7.685 0 12.402 1.318 13 2.088V30a1.001 1.001 0 01-2 0V18c0-1.654-1.346-3-3-3zm-25-2.326C30.057 15.284 36.358 17 44 17c.338 0 .667-.014 1-.021v2c-.333.007-.662.021-1 .021-10.019 0-17-3.162-17-6zM6.605 19.02l.357.357a3.98 3.98 0 01-3.586 3.586l-.356-.358a4.005 4.005 0 013.585-3.585zm-1.558 5.613a6.02 6.02 0 003.586-3.586L21.586 34 18 37.586zM12.414 46L30 28.414 32.586 31 15 48.586zm7.586.414l6.293 6.293 1.414-1.414L21.414 45 26 40.414l6.293 6.293 1.414-1.414L27.414 39 32 34.414 40.586 43 39 44.586l-5.293-5.293-1.414 1.414L37.586 46 33 50.586l-6.293-6.293-1.414 1.414L31.586 52 27 56.586 18.414 48zM45 55a1 1 0 011 1c0 1.654 1.346 3 3 3h11a1 1 0 010 2H10a1 1 0 010-2h17.414l4-4zm-1-8c-1.489 0-2.949-.077-4.367-.219L43.414 43l-10-10 2-2L30 25.586l-3 3V16.674C30.057 19.284 36.358 21 44 21c.338 0 .667-.014 1-.021V36c0 1.654 1.346 3 3 3s3-1.346 3-3V18a1.001 1.001 0 012 0v12c0 1.654 1.346 3 3 3s3-1.346 3-3V18.012a11.301 11.301 0 002-1.322V41c0 2.838-6.981 6-17 6zm15-31.31v-1.677a11.301 11.301 0 002-1.322V13c0 .887-.714 1.83-2 2.69z"/><path d="M57 40.229c-.446.329-1.462.905-3.29 1.471l.592 1.91c2.12-.656 3.785-1.51 4.455-2.283l.243-.282v-5.967h-2zM49.901 42.563l.311 1.977a32.03 32.03 0 002.032-.386l-.436-1.951c-.592.132-1.229.254-1.907.36zM45.952 42.955l.092 1.998a41.43 41.43 0 002.052-.146l-.191-1.99c-.624.059-1.275.107-1.953.138z"/></g></svg>