<svg id="Layer_5" enable-background="new 0 0 64 64" height="512" viewBox="0 0 64 64" width="512" xmlns="http://www.w3.org/2000/svg"><g><g><g><path d="m62 13v28c0 3.87-8.06 7-18 7-2.3 0-4.5-.17-6.53-.47l1.53-1.53 3-3-10-10 2-2-4-4-4 4v-18c0 3.87 8.06 7 18 7 .68 0 1.34-.01 2-.04v16.04c0 1.1.9 2 2 2 .55 0 1.05-.22 1.41-.59.37-.36.59-.86.59-1.41v-18c0-1.1.9-2 2-2 .55 0 1.05.22 1.41.59.37.36.59.86.59 1.41v12c0 1.1.9 2 2 2 .55 0 1.05-.22 1.41-.59.37-.36.59-.86.59-1.41v-12.6c2.5-1.2 4-2.73 4-4.4z" fill="#d3a06c"/></g><g><path d="m46 15.96v4c-.66.03-1.32.04-2 .04-9.94 0-18-3.13-18-7v-4c0 3.87 8.06 7 18 7 .68 0 1.34-.01 2-.04z" fill="#ccd1d9"/></g><g><path d="m62 9v4c0 1.67-1.5 3.2-4 4.4v-4c2.5-1.2 4-2.73 4-4.4z" fill="#ccd1d9"/></g><g><path d="m62 9c0 1.67-1.5 3.2-4 4.4v-4.4c0-1.66-6.27-3-14-3s-14 1.34-14 3 6.27 3 14 3c.55 0 1.05.22 1.41.59.37.36.59.86.59 1.41v1.96c-.66.03-1.32.04-2 .04-9.94 0-18-3.13-18-7s8.06-7 18-7 18 3.13 18 7z" fill="#e6e9ed"/></g><g><path d="m60 58c1.1 0 2 .9 2 2 0 .55-.22 1.05-.59 1.41-.36.37-.86.59-1.41.59h-50c-1.1 0-2-.9-2-2 0-.55.22-1.05.59-1.41.36-.37.86-.59 1.41-.59h17l4-4h14c1.1 0 2 .9 2 2 0 .55.22 1.05.59 1.41.36.37.86.59 1.41.59z" fill="#fcd770"/></g><g><path d="m58 17.4v12.6c0 .55-.22 1.05-.59 1.41-.36.37-.86.59-1.41.59-1.1 0-2-.9-2-2v-12c0-.55-.22-1.05-.59-1.41-.36-.37-.86-.59-1.41-.59-1.1 0-2 .9-2 2v18c0 .55-.22 1.05-.59 1.41-.36.37-.86.59-1.41.59-1.1 0-2-.9-2-2v-16.04-4-1.96c0-.55-.22-1.05-.59-1.41-.36-.37-.86-.59-1.41-.59-7.73 0-14-1.34-14-3s6.27-3 14-3 14 1.34 14 3v4.4z" fill="#fcd770"/></g><g><path d="m26 39 6-6 10 10-3 3-1.53 1.53-4.47 4.47-2 2-4 4-10-10 3-3z" fill="#ffeaa7"/></g><g><path d="m34 31-2 2-6 6-6 6-3 3-2 2-4-4 7-7 5-5 3-3 4-4z" fill="#ccd1d9"/></g><g><path d="m23 34-5 5-15-15c2.76 0 5-2.24 5-5z" fill="#aab2bd"/></g><g><path d="m7 18 1 1c0 2.76-2.24 5-5 5l-1-1c0-1.38.56-2.63 1.46-3.54.91-.9 2.16-1.46 3.54-1.46z" fill="#b4dd7f"/></g></g><g><path d="m44 1c-10.832 0-19 3.439-19 8v21.586l-2 2-15.586-15.586h-.414c-3.309 0-6 2.691-6 6v.414l15.586 15.586-7 7 5.414 5.414 2-2 7.586 7.586h-14.586c-1.654 0-3 1.346-3 3s1.346 3 3 3h50c1.654 0 3-1.346 3-3s-1.346-3-3-3h-11c-.552 0-1-.448-1-1 0-1.654-1.346-3-3-3h-11.586l4.42-4.42c1.976.275 4.045.42 6.166.42 10.832 0 19-3.439 19-8v-32c0-4.561-8.168-8-19-8zm0 2c10.019 0 17 3.162 17 6 0 .887-.714 1.83-2 2.69v-2.69c0-3.888-13.465-4-15-4s-15 .112-15 4 13.465 4 15 4c.552 0 1 .449 1 1v.979c-.333.007-.662.021-1 .021-10.019 0-17-3.162-17-6s6.981-6 17-6zm8 12c-1.654 0-3 1.346-3 3v18c0 .552-.448 1-1 1s-1-.448-1-1v-22c0-1.654-1.346-3-3-3-7.398 0-12.047-1.222-12.916-2 .869-.778 5.518-2 12.916-2 7.685 0 12.402 1.318 13 2.088v20.912c0 .551-.448 1-1 1s-1-.449-1-1v-12c0-1.654-1.346-3-3-3zm-25-2.326c3.057 2.61 9.358 4.326 17 4.326.338 0 .667-.014 1-.021v2c-.333.007-.662.021-1 .021-10.019 0-17-3.162-17-6zm-20.395 6.346.357.357c-.181 1.901-1.684 3.405-3.586 3.586l-.356-.358c.185-1.891 1.694-3.399 3.585-3.585zm-1.558 5.613c1.662-.606 2.98-1.924 3.586-3.586l12.953 12.953-3.586 3.586zm7.367 21.367 17.586-17.586 2.586 2.586-17.586 17.586zm7.586.414 6.293 6.293 1.414-1.414-6.293-6.293 4.586-4.586 6.293 6.293 1.414-1.414-6.293-6.293 4.586-4.586 8.586 8.586-1.586 1.586-5.293-5.293-1.414 1.414 5.293 5.293-4.586 4.586-6.293-6.293-1.414 1.414 6.293 6.293-4.586 4.586-8.586-8.586zm25 8.586c.552 0 1 .448 1 1 0 1.654 1.346 3 3 3h11c.552 0 1 .448 1 1s-.448 1-1 1h-50c-.552 0-1-.448-1-1s.448-1 1-1h17.414l4-4zm-1-8c-1.489 0-2.949-.077-4.367-.219l3.781-3.781-10-10 2-2-5.414-5.414-3 3v-11.912c3.057 2.61 9.358 4.326 17 4.326.338 0 .667-.014 1-.021v15.021c0 1.654 1.346 3 3 3s3-1.346 3-3v-18c0-.551.448-1 1-1s1 .449 1 1v12c0 1.654 1.346 3 3 3s3-1.346 3-3v-11.988c.817-.433 1.473-.878 2-1.322v24.31c0 2.838-6.981 6-17 6zm15-31.31v-1.677c.817-.433 1.473-.878 2-1.322v.309c0 .887-.714 1.83-2 2.69z"/><path d="m57 40.229c-.446.329-1.462.905-3.29 1.471l.592 1.91c2.12-.656 3.785-1.51 4.455-2.283l.243-.282v-5.967h-2z"/><path d="m49.901 42.563.311 1.977c.723-.114 1.4-.244 2.032-.386l-.436-1.951c-.592.132-1.229.254-1.907.36z"/><path d="m45.952 42.955.092 1.998c.713-.033 1.397-.083 2.052-.146l-.191-1.99c-.624.059-1.275.107-1.953.138z"/></g></g></svg>