<svg height="512" viewBox="0 0 64 64" width="512" xmlns="http://www.w3.org/2000/svg"><path d="M22 61v1H2v-1c0-4.63 3.5-8.45 8-8.94.33-.04.66-.06 1-.06h2c.33 0 .66.02.99.06 4.5.49 8.01 4.3 8.01 8.94z" fill="#b4dd7f"/><path d="M53 52c.34 0 .67.02 1 .06 4.5.49 8 4.31 8 8.94v1H42v-1c0-4.63 3.5-8.45 8-8.94.33-.04.66-.06 1-.06zM19 32c3.92 0 7.25 2.5 8.49 6H20l-.16.06c-.14-.45-.39-.85-.72-1.18-.54-.54-1.29-.88-2.12-.88h-3.82c-1.71 0-3.28.59-4.51 1.59 1.22-2.98 4-5.17 7.33-5.53.33-.04.66-.06 1-.06z" fill="#fcd770"/><path d="M42 61v1H22v-1a9 9 0 019-9h1c0 2.21 1.79 4 4 4 1.1 0 2.1-.45 2.83-1.17.12-.12.23-.25.34-.39A9.02 9.02 0 0142 61z" fill="#ff826e"/><path d="M46.93 36H45c-.55 0-1 .45-1 1v1H32.25c.89-3.45 4.02-6 7.75-6 1.48 0 2.87.4 4.06 1.1s2.18 1.7 2.87 2.9z" fill="#b4dd7f"/><path d="M16 28.96V32H4V2h26v30H20v-2c2.21 0 4-1.79 4-4v-4.18c1.17-.4 2-1.51 2-2.82V6H8v22h5.54l.01-.01c.45.63 1.18 1.01 1.98 1.01.16 0 .32-.02.47-.04zM45.66 28H58V6H40v14h-2c-.73 0-1.41.2-2 .54V2h26v30H40c2.61 0 4.84-1.67 5.66-4z" fill="#ccd1d9"/><path d="M40 6h18v22H45.66c.22-.63.34-1.3.34-2v-5c0-.55-.45-1-1-1h-5zM26 6v13c0-.83-.34-1.58-.88-2.12S23.83 16 23 16h-3.82c-1.47 0-2.84.44-3.98 1.2a7.185 7.185 0 00-3.2 5.98v.09c0 1.15.26 2.26.77 3.27l.55 1.09c.06.13.14.25.23.36l-.01.01H8V6z" fill="#69d6f4"/><path d="M19.84 38.06c.11.29.16.61.16.94 0 1.31-.83 2.42-2 2.82-.31.12-.65.18-1 .18h-2c-1.66 0-3 1.34-3 3v1.53c0 1.2-.86 2.21-2 2.42-.15.03-.31.05-.47.05-.94 0-1.79-.53-2.21-1.37l-.55-1.09A7.217 7.217 0 016 43.27v-.09c0-2.25 1.04-4.27 2.67-5.59 1.23-1 2.8-1.59 4.51-1.59H17c.83 0 1.58.34 2.12.88.33.33.58.73.72 1.18z" fill="#b27946"/><path d="M58 43.18v.09c0 1.15-.26 2.26-.77 3.27l-.55 1.09c-.41.84-1.27 1.37-2.21 1.37-.16 0-.32-.02-.47-.04-1.14-.22-2-1.23-2-2.43V45c0-1.66-1.34-3-3-3h-2c-.35 0-.69-.06-1-.18-1.17-.4-2-1.51-2-2.82v-2c0-.55.45-1 1-1h5.82c3.97 0 7.18 3.21 7.18 7.18zM38 50c.55 0 1.05.22 1.41.59.37.36.59.86.59 1.41a3.993 3.993 0 01-1.17 2.83C38.1 55.55 37.1 56 36 56c-2.21 0-4-1.79-4-4v-7.15c0-.71-.26-1.39-.7-1.92-.55.65-1.38 1.07-2.3 1.07h-2c-.35 0-.69-.06-1-.18-1.17-.4-2-1.51-2-2.82 0-.83.34-1.58.88-2.12S26.17 38 27 38h5c3.31 0 6 2.69 6 6z" fill="#656d78"/><path d="M54 48.96V52.06c-.33-.04-.66-.06-1-.06h-2c-.34 0-.67.02-1 .06V50c-2.21 0-4-1.79-4-4v-4.18c.31.12.65.18 1 .18h2c1.66 0 3 1.34 3 3v1.53c0 1.2.86 2.21 2 2.43zM31.3 42.93c.44.53.7 1.21.7 1.92V52h-2c-2.21 0-4-1.79-4-4v-4.18c.31.12.65.18 1 .18h2c.92 0 1.75-.42 2.3-1.07zM14 52l-.01.06A8.22 8.22 0 0013 52h-2c-.34 0-.67.02-1 .06v-3.11c1.14-.21 2-1.22 2-2.42V45c0-1.66 1.34-3 3-3h2c.35 0 .69-.06 1-.18V46c0 2.21-1.79 4-4 4zM24 21.83V26c0 2.21-1.79 4-4 4v2h-4v-3.04c1.14-.22 2-1.23 2-2.43V25c0-1.66 1.34-3 3-3h2c.35 0 .69-.06 1-.18z" fill="#f0d0b4"/><path d="M18 26.53c0 1.2-.86 2.21-2 2.43-.15.02-.31.04-.47.04-.8 0-1.53-.38-1.98-1.01-.09-.11-.17-.23-.23-.36l-.55-1.09a7.217 7.217 0 01-.77-3.27v-.09c0-2.49 1.27-4.69 3.2-5.98 1.14-.76 2.51-1.2 3.98-1.2H23c.83 0 1.58.34 2.12.88S26 18.17 26 19c0 1.31-.83 2.42-2 2.82-.31.12-.65.18-1 .18h-2c-1.66 0-3 1.34-3 3z" fill="#656d78"/><path d="M46 21v5c0 .7-.12 1.37-.34 2-.82 2.33-3.05 4-5.66 4-3.31 0-6-2.69-6-6v-2c0-1.48.8-2.77 2-3.46a3.99 3.99 0 012-.54h7c.55 0 1 .45 1 1z" fill="#b27946"/><g><path d="M63 1H35v19.026c-1.207.914-2 2.348-2 3.974v2a6.999 6.999 0 003.177 5.857A8.985 8.985 0 0031.513 37h-3.349a9.985 9.985 0 00-3.18-4H31V1H3v32h7.997a9.98 9.98 0 00-3.161 4.007A8.266 8.266 0 005 43.265c0 1.309.294 2.56.874 3.72l.548 1.096A3.452 3.452 0 009 49.958v1.244c-4.559.929-8 4.969-8 9.798v2h62v-2c0-4.829-3.441-8.869-8-9.798V49.96a3.446 3.446 0 002.578-1.877l.549-1.097c.58-1.161.874-2.412.874-3.806 0-2.185-.851-4.239-2.396-5.784S53.006 35 50.821 35h-3.362a8.962 8.962 0 00-1.827-2H63zM35 26v-2c0-1.654 1.346-3 3-3h7v5c0 2.757-2.243 5-5 5s-5-2.243-5-5zm10-7h-4V7h16v20H46.92c.047-.328.08-.66.08-1v-5c0-1.103-.897-2-2-2zm-1.999 20v.001c0 1.473.81 2.749 1.999 3.443V46a5.009 5.009 0 004 4.899v.302c-3.094.631-5.664 2.7-7.002 5.472a9.976 9.976 0 00-1.586-2.372A4.931 4.931 0 0041 52a2.996 2.996 0 00-2-2.816V44c0-1.958-.81-3.728-2.111-5zm-10.51 3.913A3.954 3.954 0 0033 41h-2c0 1.103-.897 2-2 2h-1.999c-1.103 0-2-.897-2.001-2 0-.534.208-1.036.585-1.414.378-.378.88-.586 1.414-.586H32c2.757 0 5 2.243 5 5v5.185a2.996 2.996 0 00-2 2.816v1h2v-1a1.001 1.001 0 012 0c0 1.654-1.346 3-3 3s-3-1.346-3-3v-7.146c0-.684-.18-1.351-.509-1.942zM19 46v-3.556c1.19-.694 2-1.97 2-3.444h2.553A3.945 3.945 0 0023 41c.001 1.473.811 2.749 2 3.443V48c0 1.579.751 2.973 1.898 3.89A10.052 10.052 0 0022 56.67c-1.338-2.77-3.906-4.838-6.999-5.468V50.9A5.01 5.01 0 0019 46zm11 5c-1.654 0-3-1.346-3-3v-3h2c.715 0 1.377-.204 1.959-.534.025.128.041.257.041.388V51zm-5-35.443A3.95 3.95 0 0023 15h-2.586l-6.707-6.707-1.414 1.414 5.427 5.427a8.042 8.042 0 00-2.362.81l-1.651-1.651-1.414 1.414 1.41 1.41c-.103.093-.209.181-.308.28C11.851 18.942 11 20.996 11 23.266a8.24 8.24 0 00.874 3.72l.007.014H9V7h16zm-12 7.622a6.14 6.14 0 011.81-4.369A6.128 6.128 0 0119.174 17H23c1.103 0 2 .897 2 2s-.897 2-2 2h-2c-2.206 0-4 1.794-4 4v1.528a1.473 1.473 0 01-2.789.658l-.548-1.097c-.44-.877-.663-1.828-.663-2.91zm4 6.482a3.467 3.467 0 002-3.133V25c0-1.103.897-2 2-2h2v3c0 1.654-1.346 3-3 3h-1v2h-2zM5 3h24v28h-7.999v-.1A5.009 5.009 0 0025 26.001v-3.556c1.19-.694 2-1.97 2-3.444V5H7v24h6.096a3.442 3.442 0 001.904.959V31H5zm12 30.001L19 33v.001A8.01 8.01 0 0125.914 37h-5.47c-.694-1.189-1.969-2-3.443-2h-3.825a8.17 8.17 0 00-1.644.166A7.961 7.961 0 0117 33.001zM8.211 47.186l-.548-1.096C7.223 45.211 7 44.26 7 43.179c0-3.408 2.77-6.18 6.175-6.18L17 37c1.103 0 2 .898 2 2 0 1.103-.897 2-2 2h-2c-2.206 0-4 1.794-4 4v1.528a1.474 1.474 0 01-2.789.658zM11 49.661a3.467 3.467 0 002-3.133V45c0-1.103.897-2 2-2h2v3c0 1.654-1.346 3-3 3h-1v2h-2zM3 61c0-4.411 3.589-8 8-8h2c4.411 0 8 3.589 8 8zm20 0c0-4.411 3.589-8 8-8h.101A5.009 5.009 0 0036 57c1.191 0 2.271-.436 3.131-1.133A7.905 7.905 0 0141 61zm38 0H43c0-4.411 3.589-8 8-8h2c4.411 0 8 3.589 8 8zM51 51l-.001-2h-1A3.003 3.003 0 0147 46v-2.999h2.001c1.103 0 2 .897 2 2v1.528c0 1.386.822 2.576 1.999 3.132V51zm-.179-14a6.14 6.14 0 014.369 1.81c1.168 1.167 1.811 2.719 1.811 4.456 0 .994-.223 1.945-.663 2.825l-.549 1.097a1.462 1.462 0 01-1.316.813 1.474 1.474 0 01-1.472-1.472v-1.528c0-2.206-1.794-4-4-4h-1.999a2.002 2.002 0 01-2.001-2L45 37zm-5.918-1.99A1.999 1.999 0 0043 37h-9.315A6.99 6.99 0 0140 33c1.852 0 3.609.743 4.903 2.01zM61 31H44.889a7.013 7.013 0 001.425-2H59V5H39v14h-1c-.342 0-.677.035-1 .101V3h24z"/><path d="M50.287 9.713L51.7 8.299l4 4-1.415 1.413zM44.287 15.71l1.414-1.413 4 4-1.415 1.413zM44.287 9.712L45.7 8.298l9.998 9.998-1.414 1.414zM18.29 9.709l1.415-1.414 4 4-1.415 1.413z"/></g></svg>