<svg id="_x33_0" enable-background="new 0 0 64 64" height="512" viewBox="0 0 64 64" width="512" xmlns="http://www.w3.org/2000/svg"><g><g><g><path d="m22 61v1h-20v-1c0-4.63 3.5-8.45 8-8.94.33-.04.66-.06 1-.06h2c.33 0 .66.02.99.06 4.5.49 8.01 4.3 8.01 8.94z" fill="#b4dd7f"/></g><g><path d="m53 52c.34 0 .67.02 1 .06 4.5.49 8 4.31 8 8.94v1h-20v-1c0-4.63 3.5-8.45 8-8.94.33-.04.66-.06 1-.06z" fill="#fcd770"/></g><g><path d="m19 32c3.92 0 7.25 2.5 8.49 6h-.49-7l-.16.06c-.14-.45-.39-.85-.72-1.18-.54-.54-1.29-.88-2.12-.88h-3.82c-1.71 0-3.28.59-4.51 1.59 1.22-2.98 4-5.17 7.33-5.53.33-.04.66-.06 1-.06z" fill="#fcd770"/></g><g><path d="m42 61v1h-20v-1c0-4.97 4.03-9 9-9h1c0 2.21 1.79 4 4 4 1.1 0 2.1-.45 2.83-1.17.12-.12.23-.25.34-.39 1.74 1.65 2.83 3.98 2.83 6.56z" fill="#ff826e"/></g><g><path d="m46.93 36h-1.93c-.55 0-1 .45-1 1v1h-11.75c.89-3.45 4.02-6 7.75-6 1.48 0 2.87.4 4.06 1.1s2.18 1.7 2.87 2.9z" fill="#b4dd7f"/></g><g><path d="m16 28.96v3.04h-12v-30h26v30h-10v-2c2.21 0 4-1.79 4-4v-4.17-.01c1.17-.4 2-1.51 2-2.82v-13h-18v22h5.54l.01-.01c.45.63 1.18 1.01 1.98 1.01.16 0 .32-.02.47-.04z" fill="#ccd1d9"/></g><g><path d="m45.66 28h12.34v-22h-18v14h-2c-.73 0-1.41.2-2 .54v-18.54h26v30h-22c2.61 0 4.84-1.67 5.66-4z" fill="#ccd1d9"/></g><g><path d="m40 6h18v22h-12.34c.22-.63.34-1.3.34-2v-5c0-.55-.45-1-1-1h-5z" fill="#69d6f4"/></g><g><path d="m26 6v13c0-.83-.34-1.58-.88-2.12s-1.29-.88-2.12-.88h-3-.82c-1.47 0-2.84.44-3.98 1.2-1.93 1.29-3.2 3.49-3.2 5.98v.09c0 1.15.26 2.26.77 3.27l.55 1.09c.06.13.14.25.23.36l-.01.01h-5.54v-22z" fill="#69d6f4"/></g><g><path d="m19.84 38.06c.11.29.16.61.16.94 0 1.31-.83 2.42-2 2.82-.31.12-.65.18-1 .18h-2c-1.66 0-3 1.34-3 3v1.53c0 1.2-.86 2.21-2 2.42-.15.03-.31.05-.47.05-.94 0-1.79-.53-2.21-1.37l-.55-1.09c-.51-1.01-.77-2.12-.77-3.27v-.09c0-2.25 1.04-4.27 2.67-5.59 1.23-1 2.8-1.59 4.51-1.59h3.82c.83 0 1.58.34 2.12.88.33.33.58.73.72 1.18z" fill="#b27946"/></g><g><path d="m58 43.18v.09c0 1.15-.26 2.26-.77 3.27l-.55 1.09c-.41.84-1.27 1.37-2.21 1.37-.16 0-.32-.02-.47-.04-1.14-.22-2-1.23-2-2.43v-1.53c0-1.66-1.34-3-3-3h-2c-.35 0-.69-.06-1-.18-1.17-.4-2-1.51-2-2.82v-1-1c0-.55.45-1 1-1h1.93 3.89c3.97 0 7.18 3.21 7.18 7.18z" fill="#656d78"/></g><g><path d="m38 50c.55 0 1.05.22 1.41.59.37.36.59.86.59 1.41 0 .92-.31 1.76-.83 2.44-.11.14-.22.27-.34.39-.73.72-1.73 1.17-2.83 1.17-2.21 0-4-1.79-4-4v-7.15c0-.71-.26-1.39-.7-1.92-.55.65-1.38 1.07-2.3 1.07h-2c-.35 0-.69-.06-1-.18-1.17-.4-2-1.51-2-2.82 0-.83.34-1.58.88-2.12s1.29-.88 2.12-.88h.49 4.51c3.31 0 6 2.69 6 6z" fill="#656d78"/></g><g><path d="m54 48.96v3.09.01c-.33-.04-.66-.06-1-.06h-2c-.34 0-.67.02-1 .06v-.01-2.05c-2.21 0-4-1.79-4-4v-4.17-.01c.31.12.65.18 1 .18h2c1.66 0 3 1.34 3 3v1.53c0 1.2.86 2.21 2 2.43z" fill="#f0d0b4"/></g><g><path d="m31.3 42.93c.44.53.7 1.21.7 1.92v7.15h-1-1c-2.21 0-4-1.79-4-4v-4.17-.01c.31.12.65.18 1 .18h2c.92 0 1.75-.42 2.3-1.07z" fill="#f0d0b4"/></g><g><path d="m14 52-.01.06c-.33-.04-.66-.06-.99-.06h-2c-.34 0-.67.02-1 .06v-3.11c1.14-.21 2-1.22 2-2.42v-1.53c0-1.66 1.34-3 3-3h2c.35 0 .69-.06 1-.18v.01 4.17c0 2.21-1.79 4-4 4z" fill="#f0d0b4"/></g><g><path d="m24 21.83v4.17c0 2.21-1.79 4-4 4v2h-1-2-1v-3.04c1.14-.22 2-1.23 2-2.43v-1.53c0-1.66 1.34-3 3-3h2c.35 0 .69-.06 1-.18z" fill="#f0d0b4"/></g><g><path d="m18 26.53c0 1.2-.86 2.21-2 2.43-.15.02-.31.04-.47.04-.8 0-1.53-.38-1.98-1.01-.09-.11-.17-.23-.23-.36l-.55-1.09c-.51-1.01-.77-2.12-.77-3.27v-.09c0-2.49 1.27-4.69 3.2-5.98 1.14-.76 2.51-1.2 3.98-1.2h.82 3c.83 0 1.58.34 2.12.88s.88 1.29.88 2.12c0 1.31-.83 2.42-2 2.82-.31.12-.65.18-1 .18h-2c-1.66 0-3 1.34-3 3z" fill="#656d78"/></g><g><path d="m46 21v5c0 .7-.12 1.37-.34 2-.82 2.33-3.05 4-5.66 4-3.31 0-6-2.69-6-6v-2c0-1.48.8-2.77 2-3.46.59-.34 1.27-.54 2-.54h2 5c.55 0 1 .45 1 1z" fill="#b27946"/></g></g><g><path d="m63 1h-28v19.026c-1.207.914-2 2.348-2 3.974v2c0 2.449 1.267 4.605 3.177 5.857-2.144 1.006-3.85 2.834-4.664 5.143h-3.349c-.705-1.614-1.814-2.979-3.18-4h6.016v-32h-28v32h7.997c-1.355 1.017-2.453 2.382-3.161 4.007-1.733 1.511-2.836 3.743-2.836 6.258 0 1.309.294 2.56.874 3.72l.548 1.096c.512 1.023 1.472 1.709 2.578 1.877v1.244c-4.559.929-8 4.969-8 9.798v2h62v-2c0-4.829-3.441-8.869-8-9.798v-1.242c1.107-.167 2.067-.854 2.578-1.877l.549-1.097c.58-1.161.874-2.412.874-3.806 0-2.185-.851-4.239-2.396-5.784s-3.599-2.396-5.784-2.396h-.001-3.361c-.512-.762-1.125-1.437-1.827-2h17.368zm-28 25v-2c0-1.654 1.346-3 3-3h7v5c0 2.757-2.243 5-5 5s-5-2.243-5-5zm10-7h-4v-12h16v20h-10.08c.047-.328.08-.66.08-1v-5c0-1.103-.897-2-2-2zm-1.999 20v.001c0 1.473.81 2.749 1.999 3.443v3.556c0 2.414 1.721 4.435 4 4.899v.302c-3.094.631-5.664 2.7-7.002 5.472-.412-.858-.942-1.659-1.586-2.372.363-.692.588-1.467.588-2.301 0-1.302-.839-2.402-2-2.816v-5.184c0-1.958-.81-3.728-2.111-5zm-10.51 3.913c.314-.571.509-1.217.509-1.913h-2c0 1.103-.897 2-2 2h-1.999c-1.103 0-2-.897-2.001-2 0-.534.208-1.036.585-1.414.378-.378.88-.586 1.414-.586h5.001c2.757 0 5 2.243 5 5v5.185c-1.161.414-2 1.514-2 2.816v1h2v-1c0-.551.448-1 1-1s1 .449 1 1c0 1.654-1.346 3-3 3s-3-1.346-3-3v-7.146c0-.684-.18-1.351-.509-1.942zm-13.491 3.087v-3.556c1.19-.694 2-1.97 2-3.444h2.553c-.352.603-.554 1.284-.553 2 .001 1.473.811 2.749 2 3.443v3.557c0 1.579.751 2.973 1.898 3.89-2.141.968-3.877 2.668-4.898 4.78-1.338-2.77-3.906-4.838-6.999-5.468v-.302c2.278-.465 3.999-2.486 3.999-4.9zm11 5c-1.654 0-3-1.346-3-3v-3h.001 1.999c.715 0 1.377-.204 1.959-.534.025.128.041.257.041.388v6.146zm-5-35.443c-.591-.345-1.268-.557-2-.557h-2.586l-6.707-6.707-1.414 1.414 5.427 5.427c-.828.148-1.624.418-2.362.81l-1.651-1.651-1.414 1.414 1.41 1.41c-.103.093-.209.181-.308.28-1.544 1.545-2.395 3.599-2.395 5.869 0 1.309.294 2.561.874 3.72l.007.014h-2.881v-20h16zm-12 7.622c0-1.65.643-3.201 1.81-4.369 1.166-1.167 2.715-1.81 4.364-1.81h.001 3.825c1.103 0 2 .897 2 2s-.897 2-2 2h-2c-2.206 0-4 1.794-4 4v1.528c0 .812-.66 1.472-1.472 1.472-.562 0-1.066-.312-1.317-.814l-.548-1.097c-.44-.877-.663-1.828-.663-2.91zm4 6.482c1.178-.556 2-1.746 2-3.133v-1.528c0-1.103.897-2 2-2h2v3c0 1.654-1.346 3-3 3h-1v2h-2zm-12-26.661h24v28h-7.999v-.1c2.278-.464 3.999-2.485 3.999-4.899v-3.556c1.19-.694 2-1.97 2-3.444v-14.001h-20v24h6.096c.515.509 1.176.848 1.904.959v1.041h-10zm12 30.001 2-.001v.001c2.884 0 5.502 1.565 6.914 3.999h-5.47c-.694-1.189-1.969-2-3.443-2h-3.825c-.563 0-1.113.057-1.644.166 1.45-1.363 3.383-2.165 5.468-2.165zm-8.789 14.185-.548-1.096c-.44-.879-.663-1.83-.663-2.911 0-3.408 2.77-6.18 6.175-6.18l3.825.001c1.103 0 2 .898 2 2 0 1.103-.897 2-2 2h-2c-2.206 0-4 1.794-4 4v1.528c0 .811-.66 1.472-1.472 1.472-.561 0-1.066-.312-1.317-.814zm2.789 2.475c1.178-.556 2-1.746 2-3.133v-1.528c0-1.103.897-2 2-2h2v3c0 1.654-1.346 3-3 3h-1v2h-2zm-8 11.339c0-4.411 3.589-8 8-8h2c4.411 0 8 3.589 8 8zm20 0c0-4.411 3.589-8 8-8h.101c.465 2.279 2.484 4 4.899 4 1.191 0 2.271-.436 3.131-1.133 1.209 1.435 1.869 3.224 1.869 5.133zm38 0h-18c0-4.411 3.589-8 8-8h2c4.411 0 8 3.589 8 8zm-10-10-.001-2h-1c-1.653 0-2.999-1.346-2.999-3v-2.999h.002 1.999c1.103 0 2 .897 2 2v1.528c0 1.386.822 2.576 1.999 3.132v1.339zm-.179-14c1.65 0 3.202.643 4.369 1.81 1.168 1.167 1.811 2.719 1.811 4.456 0 .994-.223 1.945-.663 2.825l-.549 1.097c-.251.502-.755.813-1.316.813-.812 0-1.472-.661-1.472-1.472v-1.528c0-2.206-1.794-4-4-4h-1.999c-1.104 0-2.001-.897-2.001-2l-.001-2.001zm-5.918-1.99c-1.056.052-1.902.92-1.903 1.99h-9.315c1.14-2.404 3.572-4 6.315-4 1.852 0 3.609.743 4.903 2.01zm16.097-4.01h-16.111c.587-.574 1.068-1.251 1.425-2h12.686v-24h-20v14h-1c-.342 0-.677.035-1 .101v-16.101h24z"/><path d="m52 8.172h2v5.657h-2z" transform="matrix(.707 -.707 .707 .707 7.745 40.699)"/><path d="m46 14.172h2v5.657h-2z" transform="matrix(.707 -.707 .707 .707 1.745 38.213)"/><path d="m49 6.929h2v14.142h-2z" transform="matrix(.707 -.707 .707 .707 4.745 39.456)"/><path d="m20 8.172h2v5.657h-2z" transform="matrix(.707 -.707 .707 .707 -1.627 18.071)"/></g></g></svg>