<svg xmlns="http://www.w3.org/2000/svg" viewBox="0 0 512 512"><g fill="#2196f3"><circle cx="64" cy="64" r="64"/><path d="M10.667 170.667h106.667c5.891 0 10.667 4.776 10.667 10.667v320c0 5.891-4.776 10.667-10.667 10.667H10.667C4.776 512 0 507.224 0 501.333v-320c0-5.891 4.776-10.666 10.667-10.666zM435.2 155.989a162.132 162.132 0 00-136.832 22.699A10.666 10.666 0 00288 170.667H181.333c-5.891 0-10.667 4.776-10.667 10.667v320c0 5.891 4.776 10.667 10.667 10.667H288c5.891 0 10.667-4.776 10.667-10.667V271.36a56.02 56.02 0 0157.6-11.861c18.7 9.237 29.74 29.075 27.733 49.835v192c0 5.891 4.776 10.667 10.667 10.667h106.667c5.891 0 10.667-4.776 10.667-10.667V287.851c-1.217-87.659-42.454-120.107-76.801-131.862z"/></g></svg>